<?xml version="1.0" encoding="UTF-8"?>
<!-- Generator: Adobe Illustrator 27.7.0, SVG Export Plug-In . SVG Version: 6.00 Build 0)  -->
<svg xmlns="http://www.w3.org/2000/svg" xmlns:xlink="http://www.w3.org/1999/xlink" version="1.1" id="Layer_2_00000004527155507401366220000001948818597836310444_" x="0px" y="0px" viewBox="0 0 186.9 130.5" style="enable-background:new 0 0 186.9 130.5;" xml:space="preserve">
<style type="text/css">
	.st0{enable-background:new    ;}
	.st1{fill:#373737;}
	.st2{fill:url(#SVGID_1_);}
	.st3{fill:#00997A;}
	.st4{fill:#D7D7D8;}
</style>
<g class="st0">
	<path class="st1" d="M83.3,88c-0.6,0-1-0.3-1.4-0.9c-0.4-0.6-0.6-1.3-0.6-2.1V13.6c0-0.8,0.2-1.5,0.6-2.1c0.4-0.6,0.8-0.9,1.4-0.9   h14c0.5,0,1,0.3,1.4,0.9c0.4,0.6,0.6,1.3,0.6,2.1v71.5c0,0.8-0.2,1.5-0.6,2.1S97.8,88,97.2,88H83.3z"></path>
	<path class="st1" d="M183,10.7c0.6,0,1.2,0.3,1.7,0.9c0.5,0.6,0.7,1.3,0.7,2.1v71.5c0,0.8-0.2,1.5-0.7,2.1s-1,0.9-1.7,0.9h-15   c-0.7,0-1.2-0.3-1.7-0.9c-0.5-0.6-0.7-1.3-0.7-2.1V46.5l-16.3,39.9c-0.2,0.5-0.5,0.9-0.9,1.2c-0.4,0.3-0.8,0.5-1.1,0.5h-7.1   c-0.3,0-0.7-0.2-1.1-0.5c-0.4-0.3-0.7-0.7-0.9-1.2l-16.2-39.8v38.5c0,0.8-0.2,1.5-0.7,2.1c-0.5,0.6-1,0.9-1.7,0.9h-15   c-0.7,0-1.2-0.3-1.6-0.9c-0.5-0.6-0.7-1.3-0.7-2.1V13.6c0-0.8,0.2-1.5,0.7-2.1c0.4-0.6,1-0.9,1.6-0.9h17.6c0.3,0,0.7,0.1,1.1,0.4   c0.4,0.3,0.7,0.6,0.9,1l19.7,41.9l19.4-41.9c0.2-0.4,0.5-0.7,0.9-1c0.4-0.3,0.8-0.4,1.1-0.4H183z"></path>
</g>
<radialGradient id="SVGID_1_" cx="39.0445" cy="80.3398" r="42.8785" fx="39.0445" fy="41.9022" gradientTransform="matrix(1 0 0 -1 0 129.8898)" gradientUnits="userSpaceOnUse">
	<stop offset="0" style="stop-color:#FFFFFF"></stop>
	<stop offset="0.16" style="stop-color:#CEEBE5"></stop>
	<stop offset="0.53" style="stop-color:#57BBA7"></stop>
	<stop offset="0.79" style="stop-color:#00997A"></stop>
</radialGradient>
<path class="st2" d="M58.1,88c-0.3,0-0.7-0.2-1.2-0.5c-0.4-0.3-0.7-0.7-0.9-1.2l-3.8-9.6H24l-3.8,9.6c-0.2,0.5-0.5,0.8-0.9,1.2  S18.5,88,18.1,88H2.5c-1,0-1.7-0.5-2.2-1.4c-0.4-0.9-0.4-1.9,0.1-3l30-71c0.1-0.4,0.5-0.8,0.9-1.1c0.5-0.3,0.8-0.5,1.1-0.5h13.3  c0.3,0,0.7,0.2,1.1,0.5s0.7,0.7,0.9,1.2l30.1,71c0.4,1.1,0.4,2.1,0,3S76.7,88,75.7,88L58.1,88L58.1,88z M32.2,49.5L39,70.1l7.2-20.5  L39,28.8L32.2,49.5z"></path>
<path class="st3" d="M39,28.9l6.7-17.8H32.4L39,28.9L39,28.9z"></path>
<polygon class="st4" points="39,70.1 37,76.7 41.1,76.7 "></polygon>
</svg>
